# xmcd
#
# Track frame offsets: 
#        150
#        13840
#        31815
#        50722
#        70805
#        95647
#        118530
#        149882
#        164587
#        187415
#        209947
#        229145
#        242270
#        260292
#        271520
#        286922
#        309669
#        326592
#
# Disc length: 4621 seconds
#
# Revision: 1
# Processed by: cddbd v1.5.2PL0 Copyright (c) Steve Scherf et al.
# Submitted via: ExactAudioCopyFreeDBPlugin 1.0
#
DISCID=17120b12
DTITLE=Various Artist - Another Great Tomato Blues Package
DYEAR=2006
DGENRE=Blues
TTITLE0=Leadbelly - Where Did You Sleep Last Night?
TTITLE1=Deneen McEachern - Hard Dark Love
TTITLE2=Mississippi Fred McDowell - Shake 'Em On Down
TTITLE3=Carmen McRae - Come in From the Rain
TTITLE4=Louis Armstrong - Black and Blue
TTITLE5=Johnny Shines - Pay Day Woman
TTITLE6=Lightnin' Hopkins - Blues for Gamblers
TTITLE7=Jelly Roll Morton - Beale Street Blues
TTITLE8=Professor Longhair - Stagger Lee
TTITLE9=Eric Von Schmidt - My Love Comes Rolling Down
TTITLE10=Mississippi John Hurt - Frankie and Albert
TTITLE11=Elmore James - Dust My Broom
TTITLE12=Howlin' Wolf - Goin' Down Slow
TTITLE13=Arthur "Big Boy" Crudup - Rock Me Mama
TTITLE14=Little Walter - Walter's Blues
TTITLE15=Louisana Red - When My Mama Was Living
TTITLE16=Pete Seeger - Midnight Special
TTITLE17=Pete Seeger - The Bourgeois Blues
EXTD=Tomato Records, a Registered Trademark of The EGGE Company Limite
EXTD=d
EXTT0=By Leadbelly
EXTT1=By Deneen McEachern
EXTT2=By Mississippi Fred McDowell
EXTT3=By Carmen McRae
EXTT4=By Louis Armstrong
EXTT5=By Johnny Shines
EXTT6=Sonny Terry and Brownie McGee w/ Lightnin' Hopkins
EXTT7=By Jelly Roll Morton
EXTT8=By Professor Longhair
EXTT9=By Eric Von Schmidt
EXTT10=By Mississippi Joh Hurt
EXTT11=By Elmore James
EXTT12=By Howlin' Wolf
EXTT13=By Arthur "Big Boy" Crudup
EXTT14=By Little Walter
EXTT15=By Louisiana Red
EXTT16=By Arlo Guthrie, Pete Seeger, Sonny Terry and Brownie McGhee, w
EXTT16=ith the Lunenberg Travelers
EXTT17=By Arlo Guthrie, Pete Seeger, Sonny Terry and Brownie McGhee, w
EXTT17=ith the Lunenberg Travelers
PLAYORDER=
